<svg width="24" height="24" viewBox="0 0 24 24" fill="none" xmlns="http://www.w3.org/2000/svg">
<path d="M12 3.5C7.30573 3.5 3.5 7.30545 3.5 12C3.5 16.6946 7.30573 20.5 12 20.5C16.6943 20.5 20.5 16.6943 20.5 12C20.5 7.30545 16.6943 3.5 12 3.5ZM15.8179 13.2158C15.9247 13.2617 15.9735 13.3509 15.9661 13.483C15.9585 13.6159 15.8669 13.8295 15.6921 14.1244C15.5173 14.4282 15.3745 14.6132 15.2643 14.6818C15.1541 14.7498 15.0535 14.7498 14.9623 14.6818L12.533 12.9208L12.8528 15.8981C12.8749 16.0109 12.8256 16.0984 12.7041 16.1588C12.5828 16.2197 12.3465 16.25 11.9972 16.25C11.647 16.25 11.4118 16.2197 11.29 16.1588C11.1681 16.0984 11.1188 16.0112 11.1418 15.8981L11.4611 12.9208L9.04342 14.6818C8.95218 14.7498 8.84905 14.7498 8.73515 14.6818C8.62125 14.6132 8.47675 14.4282 8.30193 14.1244C8.12712 13.8295 8.0373 13.6159 8.03418 13.483C8.02965 13.3507 8.08178 13.2617 8.18803 13.2158L10.9367 12.0003L8.18803 10.7955C8.08178 10.7423 8.02965 10.6494 8.03418 10.5167C8.03758 10.3844 8.12712 10.1702 8.30193 9.87528C8.47675 9.5792 8.62125 9.39758 8.73515 9.32958C8.84905 9.26158 8.95218 9.26158 9.04342 9.32958L11.4611 11.0795L11.1418 8.1138C11.1191 7.99253 11.1684 7.90187 11.29 7.84095C11.4115 7.78003 11.647 7.75 11.9972 7.75C12.3462 7.75 12.5825 7.78032 12.7038 7.84123C12.8256 7.90215 12.8749 7.99282 12.8526 8.11408L12.5327 11.0797L14.962 9.32987C15.0532 9.26187 15.1541 9.26187 15.264 9.32987C15.3739 9.39787 15.517 9.58373 15.6918 9.88662C15.8666 10.1751 15.9579 10.3847 15.9658 10.517C15.9729 10.6499 15.9244 10.7429 15.8176 10.7958L13.069 12.0006L15.8179 13.2158Z" fill="#01679A"/>
</svg>
