<svg width="118" height="67" viewBox="0 0 118 67" fill="none" xmlns="http://www.w3.org/2000/svg">
<g clip-path="url(#clip0_971_8259)">
<path d="M32.9028 37.5269H20.1293L19.6616 39.0814H23.0692L23.7177 41.2235H29.3184L29.9629 39.0814H33.3705L32.9028 37.5269Z" fill="#444444"/>
<path d="M22.2048 28.8027C21.2261 30.1774 21.5248 32.0957 22.8729 33.0948L25.9346 35.3527C26.2726 35.6045 26.3473 36.084 26.0997 36.4317L26.5595 36.7714L28.2063 34.5015C28.5797 33.978 28.7802 33.3465 28.7802 32.6991C28.7802 32.5353 28.7684 32.3714 28.7409 32.2116C28.6151 31.4163 28.1827 30.7049 27.5421 30.2334L24.4883 27.9754C24.3232 27.8555 24.2132 27.6757 24.1817 27.4719C24.1778 27.4319 24.1778 27.392 24.1817 27.348C24.1817 27.1882 24.2289 27.0323 24.3232 26.9004L23.8634 26.5527L22.2048 28.8027Z" fill="#444444"/>
<path d="M24.0559 19.7191C23.5135 20.4784 23.2188 21.3896 23.2227 22.3287C23.2227 22.5565 23.2384 22.7843 23.2777 23.0081C23.4585 24.175 24.0913 25.2221 25.0306 25.9174L28.8705 28.7708C29.3775 29.1425 29.7155 29.702 29.8099 30.3294C29.8217 30.4573 29.8217 30.5812 29.8099 30.7091C29.8059 31.2126 29.6487 31.7002 29.3579 32.1038L29.7234 32.3836L32.7576 28.1274C34.1764 26.1332 33.7402 23.3518 31.7829 21.9051L27.1176 18.4722C26.5281 18.0206 26.4141 17.1694 26.8543 16.574C26.8582 16.566 26.8621 16.562 26.87 16.554L26.5045 16.2822L24.0559 19.7191Z" fill="#444444"/>
<path d="M16.2031 42.5225H19.705C20.4361 42.4666 21.1553 42.7104 21.7055 43.2019C22.0435 43.5456 22.2243 44.0172 22.2047 44.5047C22.2283 45.2081 21.8352 45.8555 21.2103 46.1592C22.0593 46.367 22.6527 47.1543 22.6252 48.0455C22.6252 49.4402 21.5051 50.1476 19.7993 50.1476H16.2031V42.5225ZM19.3513 45.6237C20.0863 45.6237 20.5461 45.3879 20.5461 44.8164C20.5461 44.3129 20.1609 44.0291 19.4574 44.0291H17.8185V45.6477L19.3513 45.6237ZM19.7915 48.7129C20.5265 48.7129 20.9706 48.4491 20.9706 47.8856C20.9706 47.3701 20.5893 47.0584 19.7365 47.0584H17.8185V48.7449L19.7915 48.7129Z" fill="#444444"/>
<path d="M23.3367 42.5225H26.87C27.601 42.4666 28.3203 42.7104 28.8705 43.2019C29.2125 43.5456 29.3972 44.0172 29.3854 44.5047C29.405 45.2081 29.0159 45.8555 28.391 46.1592C29.24 46.367 29.8295 47.1543 29.7981 48.0455C29.7981 49.4402 28.6779 50.1476 26.9761 50.1476H23.3367V42.5225V42.5225ZM26.4848 45.6237C27.2119 45.6237 27.6796 45.3879 27.6796 44.8164C27.6796 44.3129 27.2945 44.0291 26.591 44.0291H24.952V45.6477L26.4848 45.6237ZM26.925 48.7129C27.66 48.7129 28.1002 48.4491 28.1002 47.8856C28.1002 47.3701 27.7268 47.0584 26.8739 47.0584H24.952V48.7449L26.925 48.7129Z" fill="#444444"/>
<path d="M30.4702 42.5225H33.9721C34.7031 42.4625 35.4224 42.7103 35.9726 43.2019C36.3185 43.5416 36.5071 44.0131 36.4914 44.5047C36.5111 45.208 36.122 45.8555 35.4971 46.1592C36.3421 46.383 36.9159 47.1782 36.8687 48.0654C36.8687 49.4602 35.7486 50.1675 34.0468 50.1675H30.4702V42.5225ZM33.6105 45.6237C34.3455 45.6237 34.8093 45.3879 34.8093 44.8164C34.8093 44.3129 34.4241 44.0291 33.7206 44.0291H32.0816V45.6476L33.6105 45.6237ZM34.0586 48.7128C34.7935 48.7128 35.2337 48.4491 35.2337 47.8856C35.2337 47.3701 34.8525 47.0584 34.0075 47.0584H32.0856V48.7448L34.0586 48.7128Z" fill="#444444"/>
<path d="M37.4229 49.4439C37.4229 49.0603 37.7294 48.7485 38.1067 48.7485C38.484 48.7485 38.7906 49.0603 38.7906 49.4439C38.7906 49.8276 38.484 50.1393 38.1067 50.1393C37.7294 50.1393 37.4229 49.8276 37.4229 49.4439ZM38.712 49.4439C38.7474 49.1042 38.5037 48.8005 38.1735 48.7645C37.8395 48.7286 37.5408 48.9763 37.5054 49.312C37.5015 49.356 37.5015 49.3999 37.5054 49.4399C37.47 49.7796 37.7137 50.0833 38.0438 50.1193C38.3779 50.1553 38.6766 49.9075 38.712 49.5718C38.7159 49.5318 38.7159 49.4879 38.712 49.4439ZM37.8237 49.0603H38.15C38.2325 49.0563 38.3111 49.0842 38.3701 49.1402C38.4133 49.1841 38.4369 49.2441 38.429 49.304C38.4329 49.4079 38.3701 49.4999 38.2757 49.5358L38.4487 49.7996H38.2639L38.1107 49.5638H37.9849V49.7996H37.8237V49.0603ZM38.15 49.4199C38.2286 49.4199 38.2718 49.38 38.2718 49.32C38.2718 49.2521 38.2246 49.2121 38.146 49.2121H37.9849V49.4279L38.15 49.4199Z" fill="#444444"/>
</g>
<line x1="54.5423" y1="16.5796" x2="54.5423" y2="49.8663" stroke="#717475" stroke-opacity="0.2" stroke-width="0.594406"/>
<g clip-path="url(#clip1_971_8259)">
<path d="M82.5341 37.8063H74.7029L72.982 42.4359H69.6997L76.9073 24.0093H80.5328L87.7307 42.4359H84.2889L82.5341 37.8063ZM75.8003 34.9237H81.4416L78.6234 27.3876L75.8003 34.9237Z" fill="#444444"/>
<path d="M93.7008 33.6246V28.5571H96.2822V33.6246H101.203V36.0741H96.2822V41.1944H93.7008V36.1318H88.7798V33.6823L93.7008 33.6246Z" fill="#444444"/>
</g>
<rect x="0.703125" y="0.782227" width="116" height="64.8811" rx="1.5" stroke="#E1E5EB"/>
<defs>
<clipPath id="clip0_971_8259">
<rect width="22.5874" height="33.8811" fill="white" transform="translate(16.2031 16.2822)"/>
</clipPath>
<clipPath id="clip1_971_8259">
<rect width="31.5035" height="18.4266" fill="white" transform="translate(69.6997 24.0093)"/>
</clipPath>
</defs>
</svg>
