<svg width="117" height="66" viewBox="0 0 117 66" fill="none" xmlns="http://www.w3.org/2000/svg">
<g clip-path="url(#clip0_5193_43101)">
<path d="M32.6992 37.2446H19.9257L19.458 38.7992H22.8656L23.5141 40.9413H29.1147L29.7593 38.7992H33.1669L32.6992 37.2446Z" fill="black" fill-opacity="0.55"/>
<path d="M22.0016 28.5205C21.023 29.8952 21.3217 31.8135 22.6698 32.8125L25.7315 35.0705C26.0695 35.3223 26.1442 35.8018 25.8966 36.1495L26.3564 36.4892L28.0032 34.2193C28.3766 33.6957 28.577 33.0643 28.577 32.4169C28.577 32.2531 28.5652 32.0892 28.5377 31.9293C28.412 31.1341 27.9796 30.4227 27.339 29.9512L24.2851 27.6932C24.1201 27.5733 24.01 27.3935 23.9786 27.1897C23.9747 27.1497 23.9747 27.1097 23.9786 27.0658C23.9786 26.9059 24.0257 26.7501 24.1201 26.6182L23.6602 26.2705L22.0016 28.5205Z" fill="black" fill-opacity="0.55"/>
<path d="M23.8528 19.4369C23.3104 20.1962 23.0156 21.1073 23.0196 22.0465C23.0196 22.2743 23.0353 22.5021 23.0746 22.7259C23.2554 23.8928 23.8882 24.9399 24.8275 25.6352L28.6674 28.4886C29.1744 28.8603 29.5124 29.4198 29.6067 30.0472C29.6185 30.1751 29.6185 30.299 29.6067 30.4269C29.6028 30.9304 29.4456 31.4179 29.1548 31.8216L29.5203 32.1013L32.5545 27.8452C33.9733 25.851 33.537 23.0696 31.5798 21.6229L26.9145 18.19C26.3249 17.7384 26.211 16.8872 26.6512 16.2917C26.6551 16.2837 26.659 16.2797 26.6669 16.2718L26.3014 16L23.8528 19.4369Z" fill="black" fill-opacity="0.55"/>
<path d="M16 42.2403H19.5019C20.2329 42.1843 20.9522 42.4281 21.5024 42.9197C21.8404 43.2634 22.0212 43.7349 22.0016 44.2225C22.0251 44.9258 21.6321 45.5733 21.0072 45.877C21.8561 46.0848 22.4496 46.8721 22.4221 47.7633C22.4221 49.158 21.302 49.8653 19.5962 49.8653H16V42.2403ZM19.1482 45.3415C19.8831 45.3415 20.343 45.1057 20.343 44.5342C20.343 44.0307 19.9578 43.7469 19.2543 43.7469H17.6154V45.3654L19.1482 45.3415ZM19.5884 48.4307C20.3233 48.4307 20.7674 48.1669 20.7674 47.6034C20.7674 47.0879 20.3862 46.7762 19.5333 46.7762H17.6154V48.4626L19.5884 48.4307Z" fill="black" fill-opacity="0.55"/>
<path d="M23.1338 42.2403H26.6671C27.3982 42.1843 28.1174 42.4281 28.6676 42.9197C29.0096 43.2634 29.1943 43.7349 29.1825 44.2225C29.2022 44.9258 28.8131 45.5733 28.1881 45.877C29.0371 46.0848 29.6266 46.8721 29.5952 47.7633C29.5952 49.158 28.4751 49.8653 26.7732 49.8653H23.1338V42.2403ZM26.282 45.3415C27.0091 45.3415 27.4768 45.1057 27.4768 44.5342C27.4768 44.0307 27.0916 43.7469 26.3881 43.7469H24.7491V45.3654L26.282 45.3415ZM26.7221 48.4307C27.4571 48.4307 27.8973 48.1669 27.8973 47.6034C27.8973 47.0879 27.5239 46.7762 26.6711 46.7762H24.7491V48.4626L26.7221 48.4307Z" fill="black" fill-opacity="0.55"/>
<path d="M30.2666 42.2403H33.7685C34.4995 42.1803 35.2188 42.4281 35.769 42.9196C36.1149 43.2593 36.3035 43.7309 36.2878 44.2225C36.3075 44.9258 35.9184 45.5732 35.2935 45.8769C36.1385 46.1007 36.7123 46.896 36.6651 47.7832C36.6651 49.1779 35.545 49.8853 33.8432 49.8853H30.2666V42.2403ZM33.4069 45.3414C34.1419 45.3414 34.6056 45.1057 34.6056 44.5342C34.6056 44.0306 34.2205 43.7469 33.517 43.7469H31.878V45.3654L33.4069 45.3414ZM33.855 48.4306C34.5899 48.4306 35.0301 48.1669 35.0301 47.6034C35.0301 47.0878 34.6489 46.7761 33.8039 46.7761H31.882V48.4626L33.855 48.4306Z" fill="black" fill-opacity="0.55"/>
<path d="M37.2197 49.1617C37.2197 48.778 37.5263 48.4663 37.9036 48.4663C38.2809 48.4663 38.5875 48.778 38.5875 49.1617C38.5875 49.5453 38.2809 49.857 37.9036 49.857C37.5263 49.857 37.2197 49.5453 37.2197 49.1617ZM38.5089 49.1617C38.5442 48.822 38.3006 48.5183 37.9704 48.4823C37.6363 48.4463 37.3376 48.6941 37.3023 49.0298C37.2983 49.0738 37.2983 49.1177 37.3023 49.1577C37.2669 49.4974 37.5106 49.8011 37.8407 49.8371C38.1748 49.873 38.4735 49.6253 38.5089 49.2896C38.5128 49.2496 38.5128 49.2056 38.5089 49.1617ZM37.6206 48.778H37.9468C38.0294 48.774 38.108 48.802 38.1669 48.858C38.2102 48.9019 38.2337 48.9619 38.2259 49.0218C38.2298 49.1257 38.1669 49.2176 38.0726 49.2536L38.2455 49.5174H38.0608L37.9075 49.2816H37.7818V49.5174H37.6206V48.778ZM37.9468 49.1377C38.0254 49.1377 38.0687 49.0977 38.0687 49.0378C38.0687 48.9699 38.0215 48.9299 37.9429 48.9299H37.7818V49.1457L37.9468 49.1377Z" fill="black" fill-opacity="0.55"/>
</g>
<line x1="54.3392" y1="16.2974" x2="54.3392" y2="49.5841" stroke="#717475" stroke-opacity="0.2" stroke-width="0.594406"/>
<g clip-path="url(#clip1_5193_43101)">
<path d="M82.3315 37.5241H74.5003L72.7794 42.1536H69.4971L76.7046 23.7271H80.3302L87.5281 42.1536H84.0862L82.3315 37.5241ZM75.5976 34.6415H81.239L78.4207 27.1053L75.5976 34.6415Z" fill="black" fill-opacity="0.55"/>
<path d="M93.4982 33.3423V28.2749H96.0796V33.3423H101.001V35.7918H96.0796V40.9122H93.4982V35.8496H88.5771V33.4001L93.4982 33.3423Z" fill="black" fill-opacity="0.55"/>
</g>
<rect x="0.5" y="0.5" width="116" height="64.8811" rx="1.5" stroke="#E1E5EB"/>
<defs>
<clipPath id="clip0_5193_43101">
<rect width="22.5874" height="33.8811" fill="white" transform="translate(16 16)"/>
</clipPath>
<clipPath id="clip1_5193_43101">
<rect width="31.5035" height="18.4266" fill="white" transform="translate(69.4961 23.7271)"/>
</clipPath>
</defs>
</svg>
