<svg width="93" height="26" viewBox="0 0 93 26" fill="none" xmlns="http://www.w3.org/2000/svg">
<path d="M10.6018 9.04443H8.44824C8.32613 9.04443 8.22622 9.1448 8.22622 9.26748V10.4218C7.68228 9.52956 6.53333 8.80465 5.02361 8.80465C2.59252 8.80465 0.5 10.6448 0.5 13.9403C0.5 17.2359 2.49261 19.0147 5.11242 19.0147C6.52223 19.0147 7.62677 18.4292 8.27062 17.498V18.1225C8.27062 19.5389 7.58792 20.6708 5.38994 20.6708C4.2854 20.6708 3.39733 20.3084 2.60917 19.6002C2.50926 19.5165 2.3483 19.5389 2.28724 19.6392L1.32147 21.2786C1.19936 21.4794 1.22156 21.6021 1.29926 21.6857C2.30389 22.5556 3.6138 23.1021 5.5065 23.1021C9.63603 23.1021 10.8405 20.7935 10.8405 18.2452V9.25075C10.8183 9.12807 10.7184 9.05001 10.5963 9.05001L10.6018 9.04443ZM5.72852 16.6113C4.25765 16.6113 3.15311 15.5574 3.15311 13.9626C3.15311 12.3679 4.25765 11.3139 5.72852 11.3139C7.19939 11.3139 8.28727 12.3232 8.28727 13.9626C8.28727 15.6021 7.19939 16.6113 5.72852 16.6113ZM15.575 5.3251V18.6968C15.575 18.8195 15.4751 18.9199 15.353 18.9199H13.1772C13.0551 18.9199 12.9552 18.8195 12.9552 18.6968V5.3251C12.9552 5.20242 13.0551 5.10205 13.1772 5.10205H15.353C15.4751 5.10205 15.575 5.20242 15.575 5.3251ZM21.9747 8.82696C19.921 8.82696 18.3724 9.51283 17.6675 10.8902C17.6287 10.9905 17.6453 11.1132 17.7508 11.1745L19.3216 12.3065C19.4215 12.3902 19.5658 12.3455 19.6213 12.2452C20.0653 11.4589 21.0311 11.1913 21.9747 11.1913C23.1403 11.1913 23.6842 11.5983 23.6842 12.1838V12.3455C23.6842 12.5909 23.5455 12.708 23.1791 12.7526L20.4816 12.998C18.6722 13.182 17.3401 14.2916 17.3401 16.0928C17.3401 17.8939 18.711 19.1652 20.6592 19.1652C22.1911 19.1652 23.1736 18.418 23.6787 17.6262V18.7359C23.6787 18.8586 23.7786 18.9589 23.9007 18.9589H26.0543C26.1764 18.9589 26.2763 18.8586 26.2763 18.7359V12.8474C26.2763 10.0983 24.8276 8.82138 21.9691 8.82138L21.9747 8.82696ZM23.6842 14.9329C23.6842 16.0258 22.7961 16.9571 21.4307 16.9571C20.526 16.9571 20.0431 16.55 20.0431 15.9032C20.0431 15.3567 20.465 14.9329 21.2531 14.8102L23.6898 14.5091V14.9329H23.6842ZM36.6112 15.9255C36.6112 18.1727 34.9794 19.1429 32.3651 19.1429C30.5557 19.1429 29.0015 18.6578 28.119 17.6485C28.058 17.5649 28.058 17.4478 28.119 17.3641L29.3679 15.747C29.4511 15.6467 29.6121 15.6467 29.6898 15.7247C30.3558 16.3939 31.3605 16.8177 32.6315 16.8177C33.3586 16.8177 33.9414 16.6169 33.9414 16.0705C33.9414 15.524 33.4197 15.4236 31.7657 15.0612C30.317 14.76 28.502 14.0909 28.502 11.9441C28.502 9.9422 30.0728 8.81023 32.6482 8.81023C34.3411 8.81023 35.5455 9.31766 36.4114 10.1262C36.4946 10.2099 36.4946 10.327 36.4336 10.4273L35.2458 11.9664C35.1625 12.0667 35.0238 12.089 34.9461 12.0054C34.3633 11.4812 33.3975 11.1578 32.4484 11.1578C31.6435 11.1578 31.1995 11.4199 31.1995 11.8437C31.1995 12.3288 31.7213 12.4515 33.4752 12.8363C35.1681 13.221 36.6167 13.8679 36.6167 15.931L36.6112 15.9255ZM46.5742 15.9255C46.5742 18.1727 44.9424 19.1429 42.3282 19.1429C40.5187 19.1429 38.9646 18.6578 38.0821 17.6485C38.021 17.5649 38.021 17.4478 38.0821 17.3641L39.3309 15.747C39.4142 15.6467 39.5751 15.6467 39.6528 15.7247C40.3189 16.3939 41.3235 16.8177 42.5946 16.8177C43.3217 16.8177 43.9045 16.6169 43.9045 16.0705C43.9045 15.524 43.3827 15.4236 41.7287 15.0612C40.28 14.76 38.465 14.0909 38.465 11.9441C38.465 9.9422 40.0358 8.81023 42.6112 8.81023C44.3041 8.81023 45.5086 9.31766 46.3744 10.1262C46.4577 10.2099 46.4577 10.327 46.3966 10.4273L45.2088 11.9664C45.1256 12.0667 44.9868 12.089 44.9091 12.0054C44.3263 11.4812 43.3605 11.1578 42.4114 11.1578C41.6066 11.1578 41.1626 11.4199 41.1626 11.8437C41.1626 12.3288 41.6843 12.4515 43.4382 12.8363C45.1311 13.221 46.5798 13.8679 46.5798 15.931L46.5742 15.9255ZM58.1192 5.10205H55.9656C55.8435 5.10205 55.7436 5.20242 55.7436 5.3251V10.4608C55.0775 9.51283 53.973 8.78235 52.4411 8.78235C50.0433 8.78235 48.0118 10.6448 48.0118 13.9794C48.0118 17.3139 50.0433 19.1597 52.4799 19.1597C53.9119 19.1597 55.0387 18.5351 55.7436 17.5203V18.6745C55.7436 18.7972 55.8435 18.8976 55.9656 18.8976H58.1192C58.2413 18.8976 58.3412 18.7972 58.3412 18.6745V5.30279C58.3412 5.20242 58.2413 5.10205 58.1192 5.10205ZM53.2459 16.6336C51.775 16.6336 50.6705 15.5797 50.6705 13.985C50.6705 12.3902 51.775 11.3363 53.2459 11.3363C54.7168 11.3363 55.8213 12.3455 55.8213 13.985C55.8213 15.6021 54.6945 16.6336 53.2459 16.6336ZM65.2237 8.80465C62.2043 8.80465 59.9508 10.8902 59.9508 13.985C59.9508 17.0797 62.2043 19.1652 65.2237 19.1652C68.2432 19.1652 70.4967 17.0797 70.4967 13.985C70.4967 10.8902 68.2432 8.80465 65.2237 8.80465ZM65.2237 16.589C63.7529 16.589 62.6039 15.5351 62.6039 13.9571C62.6039 12.379 63.7529 11.3251 65.2237 11.3251C66.6946 11.3251 67.8436 12.379 67.8436 13.9571C67.8214 15.5574 66.6946 16.589 65.2237 16.589ZM77.2016 8.80465C74.1822 8.80465 71.9287 10.8902 71.9287 13.985C71.9287 17.0797 74.1822 19.1652 77.2016 19.1652C80.2211 19.1652 82.4745 17.0797 82.4745 13.985C82.4967 10.9125 80.2377 8.80465 77.2016 8.80465ZM77.2016 16.589C75.7307 16.589 74.5818 15.5351 74.5818 13.9571C74.5818 12.379 75.7307 11.3251 77.2016 11.3251C78.6725 11.3251 79.8214 12.379 79.8214 13.9571C79.8214 15.5351 78.6947 16.589 77.2016 16.589ZM90.9945 9.26748C90.9945 9.16711 90.9112 9.06673 90.8335 9.02213C90.6337 8.92175 90.3284 8.83811 89.729 8.83811C88.358 8.83811 87.1313 9.52398 86.6096 10.656V9.2619C86.6096 9.13923 86.5097 9.03885 86.3876 9.03885H84.3339C84.2118 9.03885 84.1119 9.13923 84.1119 9.2619V18.6968C84.1119 18.8195 84.2118 18.9199 84.3339 18.9199H86.4875C86.6096 18.9199 86.7095 18.8195 86.7095 18.6968V14.4478C86.7095 12.5463 88.0194 11.6151 89.729 11.6151C90.1341 11.6151 90.5338 11.6987 90.7169 11.7768C90.8557 11.8158 91 11.7154 91 11.576V9.26748H90.9945Z" fill="black" fill-opacity="0.55"/>
</svg>
