<svg width="86" height="28" viewBox="0 0 86 28" fill="none" xmlns="http://www.w3.org/2000/svg">
<g clip-path="url(#clip0_936_17091)">
<path d="M6.71667 2.78443V2.76399C6.71667 2.11349 6.49769 1.54476 6.08016 1.11543C5.57541 0.621042 4.82942 0.36084 3.9257 0.36084H0.613281V7.75801H2.2166V5.30839H3.47848L5.20242 7.75801H7.12121L5.16345 5.00916C6.15439 4.63373 6.71481 3.83639 6.71481 2.78443H6.71667ZM2.2166 1.857H3.82549C4.29869 1.857 5.09293 1.98338 5.09293 2.83462V2.85506C5.09293 3.46468 4.61045 3.84383 3.83477 3.84383H2.2166V1.857Z" fill="#717475"/>
<path d="M18.1032 6.28229H14.0838V4.76754H17.6022V3.29183H14.0838V1.83656H18.0531V0.36084H12.4805V7.75801H18.1032V6.28229Z" fill="#717475"/>
<path d="M30.3116 4.05942V4.03898C30.3116 1.90718 28.6656 0.36084 26.3979 0.36084H23.5977V7.75801H26.3979C28.6656 7.75801 30.3116 6.20237 30.3116 4.05942ZM26.3979 6.26185H25.201V1.857H26.3979C27.7433 1.857 28.647 2.74169 28.647 4.05942V4.07987C28.647 5.38459 27.7433 6.26185 26.3979 6.26185Z" fill="#717475"/>
<path d="M43.3594 5.15544L41.771 0.339844H40.4608L38.8742 5.15544L37.334 0.360288H35.6045L38.1783 7.80764H39.5052L41.0974 3.14816L42.6877 7.80764H44.0238L46.5884 0.360288H44.8997L43.3594 5.15544Z" fill="#717475"/>
<path d="M55.7093 0.239746C53.5437 0.239746 51.8457 1.91805 51.8457 4.05914V4.07958C51.8457 6.24483 53.4973 7.87853 55.6889 7.87853C57.8804 7.87853 59.5524 6.20023 59.5524 4.05914V4.03869C59.5524 1.87344 57.9008 0.239746 55.7093 0.239746ZM55.7093 6.36192C54.4548 6.36192 53.5103 5.3713 53.5103 4.05914V4.03869C53.5103 2.73211 54.4474 1.7452 55.6889 1.7452C56.9303 1.7452 57.8879 2.73954 57.8879 4.05914V4.07958C57.8879 5.38059 56.9507 6.36192 55.7074 6.36192H55.7093Z" fill="#717475"/>
<path d="M68.9163 0.239746C66.7507 0.239746 65.0527 1.91805 65.0527 4.05914V4.07958C65.0527 6.24483 66.7043 7.87853 68.8959 7.87853C71.0875 7.87853 72.7594 6.20023 72.7594 4.05914V4.03869C72.7594 1.87344 71.1079 0.239746 68.9163 0.239746ZM68.9163 6.36192C67.6618 6.36192 66.7173 5.3713 66.7173 4.05914V4.03869C66.7173 2.73211 67.6544 1.7452 68.8959 1.7452C70.1373 1.7452 71.0949 2.73954 71.0949 4.05914V4.07958C71.0949 5.38059 70.1578 6.36192 68.9144 6.36192H68.9163Z" fill="#717475"/>
<path d="M81.4731 0.36084H78.6729V7.75801H81.4731C83.7408 7.75801 85.3868 6.20237 85.3868 4.05942V4.03898C85.3868 1.90718 83.7408 0.36084 81.4731 0.36084ZM81.4731 6.26185H80.2762V1.857H81.4731C82.8185 1.857 83.7222 2.74169 83.7222 4.05942V4.07987C83.7222 5.38459 82.8185 6.26185 81.4731 6.26185Z" fill="#717475"/>
<path d="M16.9546 21.4961H19.1796V27.3767H20.794V21.4961H23.0172V19.9795H16.9546V21.4961Z" fill="#717475"/>
<path d="M34.5912 22.4049V22.3845C34.5912 21.734 34.3722 21.1653 33.9547 20.7359C33.4499 20.2416 32.7058 19.9795 31.8002 19.9795H28.4878V27.3767H30.0911V24.927H31.353L33.0769 27.3767H34.9957L33.038 24.6278C34.0289 24.2524 34.5893 23.455 34.5893 22.4031L34.5912 22.4049ZM30.0911 21.4775H31.7C32.1732 21.4775 32.9674 21.6039 32.9674 22.4551V22.4756C32.9674 23.0852 32.485 23.4643 31.7093 23.4643H30.0911V21.4775Z" fill="#717475"/>
<path d="M45.1222 24.2115C45.1222 25.3638 44.5766 25.9734 43.5448 25.9734C42.5131 25.9734 41.9563 25.3304 41.9563 24.1613V19.9814H40.353V24.2115C40.353 26.2634 41.5388 27.4882 43.5244 27.4882C45.51 27.4882 46.7255 26.2727 46.7255 24.1502V19.9795H45.1222V24.2096V24.2115Z" fill="#717475"/>
<path d="M55.4711 22.9368C54.0923 22.6097 53.9402 22.3941 53.9402 22.0131V21.9926C53.9402 21.606 54.3243 21.3458 54.8977 21.3458C55.4711 21.3458 56.0724 21.5707 56.6903 22.0316L56.8425 22.145L57.7147 20.9128L57.5773 20.8031C56.8035 20.1805 55.9332 19.8794 54.9163 19.8794C53.3965 19.8794 52.335 20.7938 52.335 22.1023V22.1227C52.335 23.5278 53.2424 24.0222 54.8142 24.4013C56.154 24.7117 56.2542 24.9552 56.2542 25.2935V25.3139C56.2542 25.7377 55.8386 26.0109 55.1965 26.0109C54.4412 26.0109 53.7954 25.7432 53.1033 25.1429L52.9604 25.0202L51.9824 26.1856L52.116 26.3064C52.9734 27.0721 54.0274 27.4773 55.1649 27.4773C56.7998 27.4773 57.8557 26.5815 57.8557 25.1931V25.1726C57.8557 23.7174 56.7089 23.236 55.4674 22.9349L55.4711 22.9368Z" fill="#717475"/>
<path d="M62.981 21.4961H65.2059V27.3767H66.8204V21.4961H69.0435V19.9795H62.981V21.4961Z" fill="#717475"/>
</g>
<defs>
<clipPath id="clip0_936_17091">
<rect width="84.7738" height="27.2487" fill="white" transform="translate(0.613281 0.239746)"/>
</clipPath>
</defs>
</svg>
