<svg width="24" height="24" viewBox="0 0 24 24" fill="none" xmlns="http://www.w3.org/2000/svg">
<path d="M11.2066 4.36901V19.631C11.2066 20.1847 10.6962 20.6 10.1598 20.4789C6.29236 19.6137 3.41992 16.1443 3.41992 12C3.41992 7.85573 6.29236 4.38632 10.1598 3.52113C10.2861 3.49365 10.417 3.49492 10.5429 3.52482C10.6687 3.55472 10.7861 3.6125 10.8866 3.69389C10.9871 3.77527 11.0681 3.87819 11.1234 3.99505C11.1788 4.1119 11.2073 4.2397 11.2066 4.36901ZM12.963 4.36901V10.261C12.963 10.7368 13.3523 11.1262 13.8282 11.1262H19.7028C20.2565 11.1262 20.6718 10.6157 20.5507 10.0706C19.8153 6.8175 17.263 4.25654 14.0185 3.52113C13.4734 3.4 12.963 3.81529 12.963 4.36901ZM12.963 13.739V19.631C12.963 20.1847 13.4734 20.6 14.0185 20.4789C17.2716 19.7435 19.8239 17.1738 20.5594 13.9207C20.6805 13.3843 20.2565 12.8652 19.7115 12.8652H13.8368C13.3523 12.8738 12.963 13.2632 12.963 13.739Z" fill="#01679A"/>
</svg>
