<svg width="86" height="30" viewBox="0 0 86 30" fill="none" xmlns="http://www.w3.org/2000/svg">
<path d="M62.455 7.33232C62.288 7.99388 61.5644 8.3798 60.8965 8.15928L42.9172 2.59112L24.9379 8.15928C24.2699 8.3798 23.602 7.99388 23.3793 7.33232C23.3793 7.33232 23.3793 7.33232 23.3793 7.27719C23.1566 6.61563 23.5463 5.89894 24.2143 5.67841L42.5275 0.0551302C42.6945 0 42.8058 0 42.9172 0C43.0285 0 43.1955 0 43.3068 0.0551302L61.6201 5.73354C62.288 5.95407 62.6777 6.67076 62.455 7.33232Z" fill="#F3C55B"/>
<path d="M85.5547 17.0997H82.2149V29.3386C82.2149 29.5591 81.9922 29.7796 81.7696 29.7796H78.9864C78.7638 29.7796 78.5411 29.5591 78.5411 29.3386V17.0997H75.2013C74.9786 17.0997 74.756 16.8791 74.756 16.6586V14.1778C74.756 13.9572 74.9786 13.7367 75.2013 13.7367H85.5547C85.7773 13.7367 86 13.9021 86 14.1778V16.6586C86 16.8791 85.7773 17.0997 85.5547 17.0997ZM67.2971 30.0001H66.9074C66.7961 30.0001 66.6848 29.945 66.6291 29.8899L57.4447 20.7934V29.3386C57.4447 29.5591 57.222 29.7796 56.9994 29.7796H54.2162C53.9935 29.7796 53.7709 29.5591 53.7709 29.3386V13.9021C53.7709 13.6816 53.9935 13.4611 54.2162 13.4611H54.7728L64.0686 22.2819V14.1778C64.0686 13.9572 64.2913 13.7367 64.5139 13.7367H67.2971C67.5197 13.7367 67.7424 13.9572 67.7424 14.1778V29.6142C67.7424 29.8347 67.5197 30.0001 67.2971 30.0001ZM41.8589 29.7796C41.6362 29.7796 41.4136 29.5591 41.4136 29.3386V14.1778C41.4136 13.9572 41.6362 13.7367 41.8589 13.7367H44.6421C44.8647 13.7367 45.0874 13.9572 45.0874 14.1778V29.3937C45.0874 29.6142 44.8647 29.8347 44.6421 29.8347H41.8589V29.7796ZM25.5495 30.0001C20.9295 30.0001 17.2 26.2513 17.2557 21.6755C17.3113 17.0997 21.0408 13.4059 25.6608 13.4611C30.2809 13.4611 33.9547 17.2099 33.9547 21.7306C33.9547 26.2513 30.2809 29.945 25.7165 30.0001C25.6608 30.0001 25.6052 30.0001 25.5495 30.0001ZM25.5495 17.1548C22.989 17.1548 20.9294 19.2497 20.9294 21.7857C20.9294 24.3217 23.0447 26.3615 25.6052 26.3615C28.1657 26.3615 30.2252 24.3217 30.2252 21.7857C30.2252 19.2497 28.11 17.1548 25.5495 17.1548ZM6.06731 23.9358H3.61812V29.3386C3.61812 29.5591 3.39547 29.7796 3.17282 29.7796H0.445307C0.222654 29.7796 0 29.5591 0 29.3386V14.1778C0 13.9572 0.222654 13.7367 0.445307 13.7367H6.06731C8.90615 13.6264 11.2997 15.8868 11.411 18.6984C11.5223 21.5101 9.24013 23.8807 6.40129 23.9909C6.28997 23.9358 6.17864 23.9358 6.06731 23.9358ZM5.84466 17.0997H3.61812V20.628H5.84466C6.8466 20.628 7.68155 19.8562 7.68155 18.8638C7.68155 17.8163 6.8466 17.0445 5.84466 17.0997Z" fill="#04699B"/>
</svg>
