<svg width="28" height="28" viewBox="0 0 28 28" fill="none" xmlns="http://www.w3.org/2000/svg">
<path d="M6.53501 9.64534H17.7327V7.15697C17.7327 6.12015 17.3698 5.23885 16.644 4.51307C15.9182 3.7873 15.037 3.42441 14.0001 3.42441C12.9633 3.42441 12.082 3.7873 11.3562 4.51307C10.9352 4.93411 10.6363 5.40748 10.4595 5.93318C10.2405 6.58449 9.71052 7.15697 9.02338 7.15697V7.15697C8.33623 7.15697 7.76404 6.59483 7.89183 5.91967C8.1186 4.72155 8.6878 3.66667 9.59944 2.75504C10.8121 1.54237 12.279 0.936035 14.0001 0.936035C15.7213 0.936035 17.1886 1.54237 18.4021 2.75504C19.6147 3.96853 20.2211 5.43585 20.2211 7.15697V9.64534H21.4653C22.1496 9.64534 22.7356 9.88879 23.2233 10.3757C23.7102 10.8634 23.9536 11.4494 23.9536 12.1337V24.5756C23.9536 25.2599 23.7102 25.8459 23.2233 26.3336C22.7356 26.8205 22.1496 27.064 21.4653 27.064H6.53501C5.8507 27.064 5.2651 26.8205 4.77821 26.3336C4.29049 25.8459 4.04663 25.2599 4.04663 24.5756V12.1337C4.04663 11.4494 4.29049 10.8634 4.77821 10.3757C5.2651 9.88879 5.8507 9.64534 6.53501 9.64534ZM6.53501 24.5756H21.4653V12.1337H6.53501V24.5756ZM14.0001 20.843C14.6844 20.843 15.2704 20.5996 15.7582 20.1127C16.2451 19.625 16.4885 19.039 16.4885 18.3547C16.4885 17.6704 16.2451 17.0843 15.7582 16.5966C15.2704 16.1097 14.6844 15.8663 14.0001 15.8663C13.3158 15.8663 12.7302 16.1097 12.2433 16.5966C11.7556 17.0843 11.5118 17.6704 11.5118 18.3547C11.5118 19.039 11.7556 19.625 12.2433 20.1127C12.7302 20.5996 13.3158 20.843 14.0001 20.843Z" fill="#444444"/>
</svg>
