<svg width="210" height="210" viewBox="0 0 210 210" fill="none" xmlns="http://www.w3.org/2000/svg">
<path d="M76.3082 98.86C75.6522 95.58 72.9462 91.316 65.8942 91.316C60.4002 91.316 55.7672 95.252 55.7672 100.418C55.7672 104.805 58.7602 107.798 63.3932 108.741L67.4522 109.561C69.7072 110.012 70.9782 111.324 70.9782 113.005C70.9782 115.055 69.2972 116.572 66.2632 116.572C62.1632 116.572 60.1542 113.989 59.9082 111.119L54.6602 112.513C55.1112 116.654 58.5142 121.615 66.2222 121.615C72.9872 121.615 76.7182 117.105 76.7182 112.636C76.7182 108.536 73.8892 105.092 68.6002 104.067L64.5412 103.288C62.4092 102.878 61.3842 101.607 61.3842 100.008C61.3842 98.081 63.1882 96.318 65.9352 96.318C69.6252 96.318 70.9372 98.819 71.2242 100.418L76.3082 98.86Z" fill="white"/>
<path d="M99.6993 121V115.67H87.1533V108.946H98.5103V103.903H87.1533V97.261H99.6993V91.931H81.4953V121H99.6993Z" fill="white"/>
<path d="M123.563 121V115.67H111.017V108.946H122.374V103.903H111.017V97.261H123.563V91.931H105.359V121H123.563Z" fill="white"/>
<path d="M134.88 115.752V97.179H139.431C144.187 97.179 148.123 100.172 148.123 106.486C148.123 112.8 144.146 115.752 139.39 115.752H134.88ZM139.595 121C147.877 121 153.986 115.67 153.986 106.486C153.986 97.302 147.918 91.931 139.636 91.931H129.222V121H139.595Z" fill="white"/>
</svg>
