<svg width="161" height="70" viewBox="0 0 161 70" fill="none" xmlns="http://www.w3.org/2000/svg">
<path d="M53.7049 40.7015V40.7855C54.931 40.4433 56.2273 40.4433 57.4534 40.7855V40.7855C55.1119 36.4595 50.5024 25.3715 47.6254 18.0215L47.2369 18.1895L47.5204 18.0215C46.6792 18.3056 45.768 18.3056 44.9269 18.0215C41.8609 25.7075 38.3959 34.3595 35.2249 40.796L35.8969 40.502L35.1829 40.8065C36.4146 40.5085 37.6997 40.5085 38.9314 40.8065C39.7504 38.78 40.6744 36.4805 41.5984 34.16C44.6644 34.0655 47.7304 34.0655 50.8804 34.16C51.7624 36.365 52.6409 38.577 53.5159 40.796L53.7049 40.7015ZM50.3239 32.6165C47.6359 32.711 44.9374 32.711 42.2494 32.6165C43.8979 28.4165 45.3994 24.395 46.2604 22.0325C47.5519 25.5395 48.9379 29.078 50.3554 32.627L50.3239 32.6165ZM136.214 40.208C135.959 40.1992 135.706 40.245 135.47 40.3423C135.235 40.4397 135.023 40.5863 134.849 40.7723C134.675 40.9583 134.543 41.1794 134.461 41.4207C134.38 41.662 134.351 41.918 134.376 42.1715C134.376 43.316 135.237 43.8935 136.476 43.799C136.716 43.8145 136.956 43.7771 137.18 43.6894C137.404 43.6017 137.605 43.4659 137.771 43.2915C137.936 43.1172 138.061 42.9086 138.137 42.6805C138.212 42.4525 138.237 42.2106 138.209 41.972C138.206 41.7201 138.151 41.4716 138.045 41.2426C137.94 41.0137 137.788 40.8093 137.599 40.643C137.41 40.4766 137.188 40.3519 136.948 40.2769C136.707 40.202 136.454 40.1785 136.203 40.208H136.214ZM74.8204 30.212H74.9044C74.9044 33.74 74.8099 37.2785 74.6314 40.8275L74.8624 40.7435L74.7259 40.8275C75.7854 40.5914 76.8815 40.57 77.9494 40.7645L78.4744 40.922V40.8275C78.1804 33.2745 78.1804 25.718 78.4744 18.158C77.2422 18.452 75.9581 18.452 74.7259 18.158L74.8414 18.2735L74.6314 18.158C74.8099 21.665 74.8939 25.193 74.9044 28.7315C70.7044 28.8295 66.4834 28.8295 62.2414 28.7315C62.2414 25.1965 62.3359 21.672 62.5249 18.158C61.2927 18.452 60.0086 18.452 58.7764 18.158L58.8604 18.263L58.6819 18.158C58.9619 25.753 58.9619 33.3445 58.6819 40.9325L59.1439 40.796C60.2585 40.5599 61.4102 40.5599 62.5249 40.796C62.3464 37.268 62.2624 33.74 62.2414 30.2225C66.4624 30.212 70.6834 30.1175 74.8099 30.212H74.8204ZM140.54 15.323V15.1865H140.151C139.796 15.1609 139.442 15.2488 139.14 15.4375C138.838 15.6262 138.604 15.906 138.471 16.2365C138.376 16.4329 138.326 16.6481 138.324 16.8665C138.324 16.8665 138.324 16.919 138.324 16.9505C138.324 16.982 138.324 17.024 138.324 17.066C137.747 23.975 137.274 30.8 136.308 37.331L136.193 37.436C136.681 37.3498 137.185 37.4196 137.631 37.6355L137.201 36.911L137.831 37.541C138.786 30.905 141.285 20.9195 141.957 18.1265C142.06 17.749 142.123 17.3619 142.146 16.9715C142.12 16.5482 141.942 16.1486 141.645 15.8459C141.348 15.5431 140.952 15.3575 140.529 15.323H140.54ZM91.8304 17.7275C83.7559 17.7275 79.5244 22.8095 79.5244 29.4455C79.5244 36.6485 84.1444 41.069 91.7254 41.069C99.9889 41.069 104.031 36.071 104.031 29.519C104.021 22.1375 99.2119 17.7275 91.8199 17.7275H91.8304ZM91.7254 39.914C86.3494 39.914 83.1784 36.071 83.1784 29.6345C83.2729 22.1375 87.2104 19.2605 91.5784 19.1345H91.7674C96.6709 19.1345 100.325 22.4945 100.325 29.5085C100.325 36.5225 96.6184 39.914 91.7149 39.914H91.7254ZM119.498 16.373C111.518 16.373 105.375 20.888 105.375 29.351C105.375 36.2705 109.407 42.413 119.592 42.413C128.139 42.413 133.715 37.709 133.715 29.4455C133.704 21.7595 128.517 16.373 119.487 16.373H119.498ZM119.498 41.1635C114.111 41.1635 109.124 38.0135 109.124 29.4455C109.218 20.4155 114.689 17.822 119.498 17.822C125.546 17.822 129.998 21.4655 129.998 29.54C129.956 38.2865 124.58 41.1215 119.487 41.1215L119.498 41.1635ZM30.9619 31.451C34.1119 25.865 39.2674 16.94 40.8004 15.029C40.7264 15.0703 40.6491 15.1054 40.5694 15.134C39.3767 15.3172 38.1612 15.2887 36.9784 15.05H36.8839V15.1445C35.7604 17.2445 31.8124 23.5445 29.3449 27.7445C26.7514 23.5445 23.7694 18.5255 21.7534 15.0605C20.5272 15.4016 19.2311 15.4016 18.0049 15.0605V15.0605C21.1549 19.754 26.0479 28.6475 27.7909 31.556H27.7069L27.5389 43.757C28.1288 43.6526 28.7252 43.5895 29.3239 43.568C29.937 43.5807 30.5481 43.6439 31.1509 43.757L31.0039 31.4615L30.9619 31.451ZM102.068 55.2335H108.273V54.4565H104.01V51.1595H107.496V50.3825H104.01V47.663H108.273V46.8965H102.068V55.2335ZM51.6679 55.2335H53.7679V51.1595H57.2644V50.3825H53.7889V47.663H57.6739V46.8965H51.6574L51.6679 55.2335ZM88.3129 52.0835L83.4724 46.8335H82.1074V55.3595H83.4724V49.6055L88.7224 55.4225H89.6884V46.8965H88.3339L88.3129 52.0835ZM76.2904 46.655L72.2269 55.1915H73.5814L74.7469 52.8605H78.0439L79.0099 55.1915H81.1099L77.2354 46.655H76.2904ZM75.1354 52.0835L76.4899 49.3745L77.6239 52.1255L75.1354 52.0835ZM69.7069 52.0835L64.8559 46.8335H63.4909V55.3595H64.8454V49.6055L70.0954 55.4225H71.0614V46.8965H69.6964L69.7069 52.0835ZM59.6164 55.2335H61.7164V46.8965H59.6164V55.2335ZM96.5974 54.4355C95.7592 54.3881 94.971 54.0217 94.3944 53.4115C93.8178 52.8014 93.4966 51.9937 93.4966 51.1542C93.4966 50.3148 93.8178 49.5071 94.3944 48.8969C94.971 48.2868 95.7592 47.9204 96.5974 47.873C97.1738 47.8796 97.7367 48.0487 98.2214 48.3607C98.7062 48.6727 99.0931 49.1151 99.3379 49.637L100.388 49.2485C99.9697 48.5046 99.3592 47.887 98.6202 47.4602C97.8813 47.0335 97.0411 46.8134 96.1879 46.823C95.588 46.7718 94.9841 46.8457 94.4143 47.0402C93.8446 47.2346 93.3214 47.5452 92.878 47.9524C92.4346 48.3596 92.0806 48.8544 91.8384 49.4056C91.5962 49.9568 91.4712 50.5522 91.4712 51.1542C91.4712 51.7563 91.5962 52.3517 91.8384 52.9029C92.0806 53.454 92.4346 53.9489 92.878 54.3561C93.3214 54.7633 93.8446 55.0739 94.4143 55.2683C94.9841 55.4627 95.588 55.5367 96.1879 55.4855C97.0636 55.5011 97.9267 55.2752 98.6824 54.8325C99.4381 54.3898 100.057 53.7475 100.472 52.976L99.4219 52.5875C99.1806 53.1381 98.7838 53.6063 98.2802 53.9346C97.7766 54.2629 97.188 54.437 96.5869 54.4355H96.5974Z" fill="#444444"/>
</svg>
